<mxfile host="app.diagrams.net" modified="2021-09-30T18:14:01.014Z" agent="5.0 (Macintosh; Intel Mac OS X 10_15_7) AppleWebKit/537.36 (KHTML, like Gecko) Chrome/94.0.4606.61 Safari/537.36" etag="0TDV_KmTi2WUnf2qOFLX" version="15.4.0" type="github">
  <diagram id="9q0Mz_b_WH28MAoYwJv6" name="Page-1">
    <mxGraphModel dx="946" dy="557" grid="1" gridSize="10" guides="1" tooltips="1" connect="1" arrows="1" fold="1" page="1" pageScale="1" pageWidth="827" pageHeight="1169" math="0" shadow="0">
      <root>
        <mxCell id="0" />
        <mxCell id="1" parent="0" />
        <mxCell id="e0oWWkWF6Ld828ex1qAI-1" value="" style="ellipse;whiteSpace=wrap;html=1;fillColor=#459CDA;" vertex="1" parent="1">
          <mxGeometry x="194" y="120" width="440" height="420" as="geometry" />
        </mxCell>
        <mxCell id="e0oWWkWF6Ld828ex1qAI-8" value="" style="line;strokeWidth=2;direction=south;html=1;fillColor=#E300D4;" vertex="1" parent="1">
          <mxGeometry x="409" y="185" width="10" height="356" as="geometry" />
        </mxCell>
        <mxCell id="e0oWWkWF6Ld828ex1qAI-9" value="" style="line;strokeWidth=2;direction=south;html=1;fillColor=#E300D4;rotation=90;" vertex="1" parent="1">
          <mxGeometry x="410" y="110" width="10" height="440" as="geometry" />
        </mxCell>
        <mxCell id="e0oWWkWF6Ld828ex1qAI-2" value="" style="ellipse;whiteSpace=wrap;html=1;aspect=fixed;fillColor=#00B441;" vertex="1" parent="1">
          <mxGeometry x="269" y="185" width="290" height="290" as="geometry" />
        </mxCell>
        <mxCell id="e0oWWkWF6Ld828ex1qAI-3" value="" style="ellipse;whiteSpace=wrap;html=1;aspect=fixed;fillColor=#F97402;" vertex="1" parent="1">
          <mxGeometry x="354" y="270" width="120" height="120" as="geometry" />
        </mxCell>
        <mxCell id="e0oWWkWF6Ld828ex1qAI-13" value="" style="shape=singleArrow;direction=west;whiteSpace=wrap;html=1;fillColor=#FFFFFF;rotation=-90;" vertex="1" parent="1">
          <mxGeometry x="392.5" y="166.5" width="43" height="30" as="geometry" />
        </mxCell>
        <mxCell id="e0oWWkWF6Ld828ex1qAI-14" value="" style="shape=singleArrow;direction=west;whiteSpace=wrap;html=1;fillColor=#FFFFFF;rotation=-90;" vertex="1" parent="1">
          <mxGeometry x="392" y="260" width="43" height="30" as="geometry" />
        </mxCell>
        <mxCell id="e0oWWkWF6Ld828ex1qAI-15" value="" style="shape=singleArrow;direction=west;whiteSpace=wrap;html=1;fillColor=#FFFFFF;rotation=-225;" vertex="1" parent="1">
          <mxGeometry x="271.86" y="366.2" width="166.89" height="30" as="geometry" />
        </mxCell>
        <mxCell id="e0oWWkWF6Ld828ex1qAI-16" value="" style="shape=singleArrow;direction=west;whiteSpace=wrap;html=1;fillColor=#FFFFFF;rotation=40;" vertex="1" parent="1">
          <mxGeometry x="398.19" y="361.41" width="183.39" height="30" as="geometry" />
        </mxCell>
      </root>
    </mxGraphModel>
  </diagram>
</mxfile>
